<svg width="68" height="68" viewBox="0 0 68 68" fill="none" xmlns="http://www.w3.org/2000/svg">
<rect width="68" height="68" rx="34" fill="#55A740" fill-opacity="0.1"/>
<path fill-rule="evenodd" clip-rule="evenodd" d="M32.3927 17.8232H35.6825L40.3429 27.839H27.7133L32.3927 17.8232ZM23.9676 27.839L28.647 17.8232H24.0816C23.4158 17.8414 22.7636 18.0154 22.1772 18.3312C21.5908 18.647 21.0866 19.0959 20.705 19.6418L15.7732 26.4764L15.765 26.4872C15.4738 26.898 15.2587 27.3576 15.1299 27.8444H23.9676V27.839ZM15.689 31.2318H23.897L29.1112 47.9545L15.9903 31.639C15.882 31.5112 15.7814 31.377 15.689 31.2372V31.2318ZM27.45 31.2318H40.6062L34.2819 51.5971C34.1229 51.6084 33.9634 51.6102 33.8042 51.6025L27.4527 31.2345L27.45 31.2318ZM44.1592 31.2318L39.0129 47.7971L52.0089 31.6362C52.1172 31.5085 52.2178 31.3743 52.3102 31.2345L44.1592 31.2318ZM52.8666 27.839C52.7383 27.3534 52.5241 26.8947 52.2342 26.4845L52.226 26.4737L47.2942 19.6445C46.9126 19.0986 46.4084 18.6497 45.822 18.3339C45.2356 18.0181 44.5834 17.8441 43.9176 17.826V17.8232H39.4282L44.0859 27.839H52.8666Z" fill="#55A740"/>
</svg>
