<svg width="68" height="68" viewBox="0 0 68 68" fill="none" xmlns="http://www.w3.org/2000/svg">
<rect width="68" height="68" rx="34" fill="#55A740" fill-opacity="0.1"/>
<g clip-path="url(#clip0_459_2532)">
<path d="M38.75 22.125H29.25L25.732 16.848C25.2051 16.0539 25.7691 15 26.7191 15H41.2809C42.2309 15 42.7949 16.0539 42.268 16.848L38.75 22.125ZM29.25 24.5H38.75C39.032 24.6855 39.3512 24.8934 39.7148 25.1234C43.923 27.8176 53 33.6215 53 45.875C53 49.8086 49.8086 53 45.875 53H22.125C18.1914 53 15 49.8086 15 45.875C15 33.6215 24.077 27.8176 28.2852 25.1234C28.6414 24.8934 28.968 24.6855 29.25 24.5ZM35.4844 31.0312C35.4844 30.2148 34.8164 29.5469 34 29.5469C33.1836 29.5469 32.5156 30.2148 32.5156 31.0312V32.0703C31.9516 32.1965 31.3875 32.3969 30.868 32.7012C29.8363 33.3172 28.9457 34.3934 28.9531 35.9594C28.9605 37.466 29.8438 38.416 30.7863 38.9801C31.6027 39.4699 32.6195 39.7816 33.4285 40.0191L33.5547 40.0562C34.4898 40.3383 35.1727 40.5609 35.6328 40.8504C36.0113 41.0879 36.0633 41.2512 36.0707 41.459C36.0781 41.8301 35.9371 42.0527 35.6328 42.2383C35.2617 42.4684 34.6754 42.6094 34.0445 42.5871C33.2207 42.5574 32.4488 42.2977 31.4395 41.9563C31.2687 41.8969 31.0906 41.8375 30.9051 41.7781C30.1258 41.5184 29.2871 41.9414 29.0273 42.7133C28.7676 43.4852 29.1906 44.3313 29.9625 44.591C30.1035 44.6355 30.2594 44.6875 30.4152 44.7469C31.0312 44.9621 31.7437 45.207 32.5082 45.3703V46.4539C32.5082 47.2703 33.1762 47.9383 33.9926 47.9383C34.809 47.9383 35.477 47.2703 35.477 46.4539V45.4297C36.0707 45.3035 36.6645 45.0957 37.1988 44.7617C38.2602 44.1012 39.0617 42.973 39.0395 41.4219C39.0172 39.9152 38.1711 38.943 37.2137 38.3344C36.3602 37.8 35.2914 37.4734 34.4602 37.2211L34.4082 37.2063C33.4582 36.9168 32.7828 36.709 32.3078 36.427C31.9219 36.1969 31.9145 36.0633 31.9145 35.9297C31.9145 35.6551 32.0184 35.4473 32.3746 35.2395C32.7754 35.002 33.384 34.8609 33.9703 34.8684C34.6828 34.8758 35.4695 35.0316 36.2859 35.2543C37.0801 35.4621 37.8891 34.9945 38.1043 34.2004C38.3195 33.4062 37.8445 32.5973 37.0504 32.382C36.568 32.2559 36.0336 32.1297 35.4844 32.0332V31.0016V31.0312Z" fill="#55A740"/>
</g>
<defs>
<clipPath id="clip0_459_2532">
<rect width="38" height="38" fill="white" transform="translate(15 15)"/>
</clipPath>
</defs>
</svg>
