<svg width="68" height="68" viewBox="0 0 68 68" fill="none" xmlns="http://www.w3.org/2000/svg">
<rect width="68" height="68" rx="34" fill="#55A740" fill-opacity="0.1"/>
<path d="M48.25 30.0417V34.7917C48.25 38.7262 41.8692 41.9167 34 41.9167C26.1308 41.9167 19.75 38.7262 19.75 34.7917V30.0417C19.75 33.9763 26.1308 37.1667 34 37.1667C41.8692 37.1667 48.25 33.9763 48.25 30.0417ZM19.75 37.9583C19.75 41.8929 26.1308 45.0833 34 45.0833C41.8692 45.0833 48.25 41.8929 48.25 37.9583V42.7083C48.25 46.6429 41.8692 49.8333 34 49.8333C26.1308 49.8333 19.75 46.6429 19.75 42.7083V37.9583ZM34 34C26.1308 34 19.75 30.8096 19.75 26.875C19.75 22.9404 26.1308 19.75 34 19.75C41.8692 19.75 48.25 22.9404 48.25 26.875C48.25 30.8096 41.8692 34 34 34Z" fill="#55A740"/>
</svg>
