<svg width="10" height="11" viewBox="0 0 10 11" fill="none" xmlns="http://www.w3.org/2000/svg">
<path d="M0.575736 9.07574C0.341421 9.31005 0.341421 9.68995 0.575736 9.92426C0.810051 10.1586 1.18995 10.1586 1.42426 9.92426L0.575736 9.07574ZM9.6 1.5C9.6 1.16863 9.33137 0.9 9 0.9L3.6 0.9C3.26863 0.9 3 1.16863 3 1.5C3 1.83137 3.26863 2.1 3.6 2.1L8.4 2.1L8.4 6.9C8.4 7.23137 8.66863 7.5 9 7.5C9.33137 7.5 9.6 7.23137 9.6 6.9L9.6 1.5ZM1.42426 9.92426L9.42426 1.92426L8.57574 1.07574L0.575736 9.07574L1.42426 9.92426Z" fill="#55A740"/>
</svg>
