<svg width="11" height="11" viewBox="0 0 11 11" fill="none" xmlns="http://www.w3.org/2000/svg">
<path d="M0.96967 8.96967C0.676777 9.26256 0.676777 9.73744 0.96967 10.0303C1.26256 10.3232 1.73744 10.3232 2.03033 10.0303L0.96967 8.96967ZM10.25 1.5C10.25 1.08579 9.91421 0.75 9.5 0.750001L2.75 0.75C2.33579 0.75 2 1.08579 2 1.5C2 1.91421 2.33579 2.25 2.75 2.25H8.75V8.25C8.75 8.66421 9.08579 9 9.5 9C9.91421 9 10.25 8.66421 10.25 8.25L10.25 1.5ZM2.03033 10.0303L10.0303 2.03033L8.96967 0.96967L0.96967 8.96967L2.03033 10.0303Z" fill="white"/>
</svg>
