<svg width="165" height="426" viewBox="0 0 165 426" fill="none" xmlns="http://www.w3.org/2000/svg">
<path d="M56.0165 295.104C51.3 299.904 45.8829 303.103 38.993 303.353C32.073 303.603 23.5594 300.883 12.6698 293.578C-9.12854 278.953 -40.1409 246.166 -86.4429 183.279C-128.719 125.859 -151.887 85.0646 -162.082 56.2225C-167.178 41.8043 -169.003 30.4536 -168.403 21.5522C-167.807 12.6918 -164.808 6.22407 -160.161 1.49483C-155.457 -3.29221 -149.959 -6.37742 -142.955 -6.48222C-135.918 -6.58751 -127.267 -3.68589 -116.286 3.74191C-94.3073 18.6084 -63.2933 51.3986 -17.7018 113.32C27.8898 175.242 51.0477 216.028 60.4125 243.731C65.0915 257.573 66.2942 268.055 65.1972 276.227C64.1053 284.362 60.7202 290.317 56.0165 295.104Z" stroke="#DDEDD9" stroke-width="2"/>
<path d="M47.223 333.882C42.5072 338.681 37.0871 341.875 30.187 342.111C23.2562 342.348 14.7247 339.604 3.80646 332.26C-18.0488 317.558 -49.1595 284.637 -95.6287 221.524C-138.058 163.897 -161.324 122.968 -171.578 94.0443C-176.705 79.585 -178.55 68.2063 -177.963 59.2871C-177.379 50.4092 -174.385 43.9351 -169.739 39.2067C-165.036 34.4204 -159.534 31.3404 -152.52 31.2501C-145.472 31.1594 -136.802 34.0854 -125.792 41.552C-103.756 56.4959 -72.6437 89.4198 -26.8876 151.565C18.8686 213.711 42.125 254.63 51.5467 282.411C56.2542 296.292 57.4748 306.799 56.3885 314.987C55.3072 323.136 51.9261 329.096 47.223 333.882Z" fill="white" stroke="#DDEDD9" stroke-width="2"/>
<path d="M34.5965 374.699C29.8801 379.499 24.463 382.698 17.5731 382.947C10.6531 383.198 2.1395 380.478 -8.7501 373.172C-30.5485 358.548 -61.5609 325.76 -107.863 262.874C-150.139 205.454 -173.307 164.659 -183.502 135.817C-188.598 121.399 -190.422 110.048 -189.823 101.147C-189.227 92.2865 -186.228 85.8188 -181.581 81.0896C-176.877 76.3025 -171.379 73.2173 -164.375 73.1125C-157.338 73.0072 -148.687 75.9088 -137.706 83.3366C-115.727 98.2031 -84.7132 130.993 -39.1217 192.915C6.46984 254.837 29.6278 295.622 38.9926 323.326C43.6716 337.167 44.8743 347.65 43.7773 355.822C42.6854 363.957 39.3003 369.912 34.5965 374.699Z" fill="white" stroke="#DDEDD9" stroke-width="2"/>
</svg>
