<svg width="267" height="405" viewBox="0 0 267 405" fill="none" xmlns="http://www.w3.org/2000/svg">
<path d="M171.296 264.459C178.074 268.169 185.579 269.864 194.659 267.734C203.787 265.593 214.608 259.563 227.925 247.598C254.565 223.659 290.876 176.256 343.25 90.0129C391.074 11.2626 416.102 -42.3345 425.713 -78.1043C430.519 -95.9903 431.447 -109.337 429.505 -119.108C427.57 -128.838 422.795 -135.02 416.114 -138.677C409.354 -142.377 401.755 -143.918 392.543 -141.586C383.281 -139.241 372.305 -132.96 358.886 -120.828C332.042 -96.5573 295.73 -49.1517 244.159 35.7688C192.588 120.689 167.569 174.277 158.894 208.493C154.558 225.598 154.332 237.764 156.835 246.548C159.324 255.286 164.536 260.758 171.296 264.459Z" stroke="#DDEDD9" stroke-width="2"/>
<path d="M187.793 304.648C194.57 308.357 202.079 310.046 211.171 307.897C220.311 305.737 231.153 299.674 244.501 287.655C271.206 263.611 307.628 216.025 360.191 129.471C408.188 50.4365 433.327 -3.34371 443.006 -39.2256C447.845 -57.1677 448.796 -70.5522 446.868 -80.3477C444.948 -90.1019 440.178 -96.2926 433.499 -99.9493C426.739 -103.649 419.137 -105.183 409.913 -102.831C400.638 -100.466 389.64 -94.1514 376.189 -81.9656C349.281 -57.5887 312.857 -10.0001 261.1 75.2271C209.343 160.454 184.212 214.225 175.473 248.548C171.105 265.706 170.859 277.906 173.349 286.711C175.827 295.469 181.034 300.948 187.793 304.648Z" fill="white" stroke="#DDEDD9" stroke-width="2"/>
<path d="M209.554 345.77C216.332 349.48 223.838 351.175 232.918 349.046C242.046 346.905 252.867 340.875 266.183 328.909C292.824 304.97 329.135 257.567 381.509 171.324C429.333 92.5741 454.361 38.977 463.972 3.2072C468.778 -14.6788 469.706 -28.025 467.763 -37.7962C465.829 -47.5262 461.054 -53.708 454.373 -57.3653C447.613 -61.0658 440.014 -62.6064 430.802 -60.2742C421.54 -57.9296 410.563 -51.6489 397.145 -39.5164C370.301 -15.2457 333.989 32.1598 282.418 117.08C230.847 202.001 205.827 255.588 197.153 289.805C192.816 306.909 192.591 319.075 195.094 327.86C197.583 336.598 202.794 342.069 209.554 345.77Z" fill="white" stroke="#DDEDD9" stroke-width="2"/>
</svg>
