<svg width="25" height="25" viewBox="0 0 25 25" fill="none" xmlns="http://www.w3.org/2000/svg">
<path fill-rule="evenodd" clip-rule="evenodd" d="M20.1498 0.90625C21.2039 0.90625 22.2148 1.32768 22.9602 2.07782C23.7056 2.82797 24.1243 3.84538 24.1243 4.90625V20.9062C24.1243 21.9671 23.7056 22.9845 22.9602 23.7347C22.2148 24.4848 21.2039 24.9062 20.1498 24.9062H4.25184C3.19774 24.9062 2.18681 24.4848 1.44145 23.7347C0.696084 22.9845 0.277344 21.9671 0.277344 20.9062V4.90625C0.277344 3.84538 0.696084 2.82797 1.44145 2.07782C2.18681 1.32768 3.19774 0.90625 4.25184 0.90625H20.1498ZM6.9015 10.2396C6.55013 10.2396 6.21316 10.3801 5.9647 10.6301C5.71625 10.8802 5.57667 11.2193 5.57667 11.5729V18.2396C5.57667 18.5932 5.71625 18.9323 5.9647 19.1824C6.21316 19.4324 6.55013 19.5729 6.9015 19.5729C7.25287 19.5729 7.58984 19.4324 7.8383 19.1824C8.08675 18.9323 8.22633 18.5932 8.22633 18.2396V11.5729C8.22633 11.2193 8.08675 10.8802 7.8383 10.6301C7.58984 10.3801 7.25287 10.2396 6.9015 10.2396ZM10.876 8.90625C10.5246 8.90625 10.1877 9.04673 9.9392 9.29677C9.69074 9.54682 9.55116 9.88596 9.55116 10.2396V18.2396C9.55116 18.5932 9.69074 18.9323 9.9392 19.1824C10.1877 19.4324 10.5246 19.5729 10.876 19.5729C11.2274 19.5729 11.5643 19.4324 11.8128 19.1824C12.0612 18.9323 12.2008 18.5932 12.2008 18.2396V13.3596C12.6049 12.9009 13.2872 12.3623 14.0463 12.0356C14.4875 11.8463 15.1512 11.7689 15.6123 11.9156C15.7652 11.9546 15.9014 12.0426 16.0004 12.1663C16.0693 12.2596 16.1753 12.4676 16.1753 12.9062V18.2396C16.1753 18.5932 16.3149 18.9323 16.5634 19.1824C16.8118 19.4324 17.1488 19.5729 17.5002 19.5729C17.8515 19.5729 18.1885 19.4324 18.437 19.1824C18.6854 18.9323 18.825 18.5932 18.825 18.2396V12.9062C18.825 12.0129 18.5998 11.2182 18.1308 10.5809C17.6992 10.003 17.0952 9.57922 16.4072 9.37158C15.2122 8.99425 13.8887 9.20358 13.005 9.58492C12.7221 9.70738 12.4465 9.84628 12.1796 10.0009C12.1241 9.6937 11.9632 9.41585 11.7249 9.2158C11.4867 9.01575 11.1863 8.9062 10.876 8.90625ZM6.9015 6.23958C6.55013 6.23958 6.21316 6.38006 5.9647 6.63011C5.71625 6.88016 5.57667 7.2193 5.57667 7.57292C5.57667 7.92654 5.71625 8.26568 5.9647 8.51573C6.21316 8.76577 6.55013 8.90625 6.9015 8.90625C7.25287 8.90625 7.58984 8.76577 7.8383 8.51573C8.08675 8.26568 8.22633 7.92654 8.22633 7.57292C8.22633 7.2193 8.08675 6.88016 7.8383 6.63011C7.58984 6.38006 7.25287 6.23958 6.9015 6.23958Z" fill="#1A1A1A"/>
</svg>
