<svg width="30" height="30" viewBox="0 0 30 30" fill="none" xmlns="http://www.w3.org/2000/svg">
<path d="M25.0008 13.7487H27.5008C27.5008 7.33625 22.6595 2.5 16.2383 2.5V5C21.3158 5 25.0008 8.67875 25.0008 13.7487Z" fill="#55A740"/>
<path d="M16.2504 10.0008C18.8791 10.0008 20.0004 11.122 20.0004 13.7508H22.5004C22.5004 9.71954 20.2816 7.50079 16.2504 7.50079V10.0008ZM20.5279 16.8045C20.2877 16.5862 19.972 16.4698 19.6476 16.4798C19.3232 16.4899 19.0154 16.6256 18.7891 16.8583L15.7979 19.9345C15.0779 19.797 13.6304 19.3458 12.1404 17.8595C10.6504 16.3683 10.1991 14.917 10.0654 14.202L13.1391 11.2095C13.3721 10.9834 13.508 10.6756 13.5181 10.351C13.5281 10.0265 13.4115 9.71084 13.1929 9.47079L8.5741 4.39204C8.35541 4.15123 8.05145 4.00517 7.72679 3.98486C7.40214 3.96456 7.08235 4.07161 6.83535 4.28329L4.12285 6.60954C3.90674 6.82643 3.77775 7.1151 3.76035 7.42079C3.7416 7.73329 3.3841 15.1358 9.1241 20.8783C14.1316 25.8845 20.4041 26.2508 22.1316 26.2508C22.3841 26.2508 22.5391 26.2433 22.5804 26.2408C22.886 26.2237 23.1745 26.0941 23.3904 25.877L25.7154 23.1633C25.9272 22.9164 26.0345 22.5968 26.0144 22.2721C25.9943 21.9474 25.8485 21.6434 25.6079 21.4245L20.5279 16.8045Z" fill="#55A740"/>
</svg>
